<svg xmlns="http://www.w3.org/2000/svg" viewBox="0 0 100 100" fill="none" stroke="#374151" stroke-width="3.5" stroke-linecap="round" stroke-linejoin="round">
  <!-- Body -->
  <rect x="8" y="50" width="84" height="28" rx="6"/>
  <!-- Roof / cabin -->
  <path d="M28 50 L36 30 Q38 26 42 26 L58 26 Q62 26 64 30 L72 50 Z"/>
  <!-- Windows -->
  <path d="M40 30 L37 46 L63 46 L60 30 Z"/>
  <line x1="50" y1="30" x2="50" y2="46"/>
  <!-- Wheel arches -->
  <path d="M8 62 Q8 78 22 78 Q36 78 36 62" fill="white" stroke="#374151"/>
  <path d="M64 62 Q64 78 78 78 Q92 78 92 62" fill="white" stroke="#374151"/>
  <!-- Wheels -->
  <circle cx="22" cy="72" r="10" fill="white" stroke="#374151" stroke-width="4"/>
  <circle cx="22" cy="72" r="3" fill="#374151"/>
  <circle cx="78" cy="72" r="10" fill="white" stroke="#374151" stroke-width="4"/>
  <circle cx="78" cy="72" r="3" fill="#374151"/>
  <!-- Headlights -->
  <rect x="10" y="54" width="10" height="6" rx="2" fill="#374151"/>
  <rect x="80" y="54" width="10" height="6" rx="2" fill="#374151"/>
</svg>
